<mxfile host="app.diagrams.net" modified="2024-04-24T12:01:45.241Z" agent="Mozilla/5.0 (X11; Linux x86_64) AppleWebKit/537.36 (KHTML, like Gecko) Chrome/123.0.0.0 Safari/537.36" version="24.2.5" etag="PpeQalr34HD1bgLsVfJn" type="github">
  <diagram name="Page-1" id="DnP9S8x6c4sgQKcPExDr">
    <mxGraphModel>
      <root>
        <mxCell id="0" />
        <mxCell id="1" parent="0" />
      </root>
    </mxGraphModel>
  </diagram>
</mxfile>
